<?xml version="1.0" standalone="no"?><!DOCTYPE svg PUBLIC "-//W3C//DTD SVG 1.1//EN" "http://www.w3.org/Graphics/SVG/1.1/DTD/svg11.dtd"><svg t="1658041201561" class="icon" viewBox="0 0 1024 1024" version="1.1" xmlns="http://www.w3.org/2000/svg" p-id="2278" xmlns:xlink="http://www.w3.org/1999/xlink" width="200" height="200"><defs></defs><path d="M736 352.992c0-17.696-14.336-32-32-32l-96 0c0 0 1.056-38.528 1.056-94.528 0-52-43.072-99.456-97.056-99.456s-95.616 45.152-95.616 99.168c0 52-0.384 94.848-0.384 94.848l-96 0c-17.696 0-32 14.304-32 32 0 17.664 0 62.016 0 62.016l448 0c0-0.032 0-44.384 0-62.048zM512 287.008c-17.696 0-32-14.336-32-32 0-17.696 14.304-32 32-32 17.664 0 32 14.304 32 32s-14.336 32-32 32zM896 352.992l-128-1.984 0.672 99.328-512.672 0 0-95.328-128-1.984c-35.328 0-64 28.672-64 64l0 448c0 35.328 28.672 64 64 64l768 0c35.328 0 64-28.672 64-64l0-448c0-35.36-28.672-64.032-64-64.032zM320 539.008c38.656 0 70.016 41.184 70.016 92s-31.36 92-70.016 92-70.016-41.184-70.016-92 31.36-92 70.016-92zM181.344 831.328c0 0 7.584-60.864 24.832-72.352s66.88-19.136 66.88-19.136 32.192 34.4 45.888 34.4c13.664 0 45.856-34.4 45.856-34.4s49.664 7.616 66.912 19.136c20.256 13.504 25.312 72.352 25.312 72.352l-275.68 0zM832 800.992l-288 0 0-32 288 0 0 32zM832 736.992l-288 0 0-32 288 0 0 32zM832 672.992l-288 0 0-32 288 0 0 32zM832 608.992l-288 0 0-32 288 0 0 32z" p-id="2279" fill="#707070"></path></svg>